<svg width="1150" height="233" viewBox="0 0 1150 233" fill="none" xmlns="http://www.w3.org/2000/svg">
<path d="M317.5 55.6888C301.5 53.6888 231.5 47.8554 198.5 45.1888C280.5 42.6888 368 21.6888 440 8.68877C512 -4.31123 587.5 -0.311239 619 5.18875C690 17.5856 770 64.6888 784.5 76.6888C832.5 75.1888 879.5 77.6888 943 81.1888C1006.95 84.7136 1059 95.7388 1085.5 103.689C1125.5 115.689 1145 137.689 1146 145.189C1121.5 123.689 1098 116.189 1066 109.189C1020.98 99.3396 928.5 92.6888 883 90.6888C846.6 89.0888 706.5 88.1888 633 91.6888C664.333 88.0221 732.8 80.1888 756 78.1888C729.5 58.6888 690.5 42.1888 667.5 34.1888C644.5 26.1888 617.5 20.1888 567 16.1888C516.5 12.1888 459 23.6888 435 29.1888C411 34.6888 381.5 40.1888 370 41.6888C372.4 43.6888 412.5 64.1888 431.5 73.6888C400.167 68.5221 333.5 57.6888 317.5 55.6888Z" fill="white"/>
<path d="M47.5 77.6888C12.7 108.489 4 134.522 4 143.689C5.2 147.689 9.5 147.355 11.5 146.689C16.1667 136.689 36.7 112.789 81.5 97.1888C137.5 77.6888 224.5 81.6888 261 82.1888C297.5 82.6888 400 91.1888 472 97.1888C454.5 92.1888 341 73.1888 286.5 67.1888C232 61.1888 165.5 57.1888 133 54.1888C100.5 51.1888 35.5 35.6888 34.5 35.6888C33.5 35.6888 31 36.1888 30.5 40.6888C30 45.1888 40.5 66.1888 47.5 77.6888Z" fill="white"/>
<path d="M40.416 214H26.976V162.448C26.976 161.936 26.784 161.488 26.4 161.104C26.08 160.72 25.664 160.528 25.152 160.528H19.968C19.456 160.528 19.008 160.72 18.624 161.104C18.304 161.488 18.144 161.936 18.144 162.448V214H4.704V163.6C4.704 155.152 8.672 150.928 16.608 150.928H28.512C36.448 150.928 40.416 155.152 40.416 163.6V214ZM83.121 163.6V202.288C83.121 210.736 79.153 214.96 71.217 214.96H58.449C50.513 214.96 46.545 210.736 46.545 202.288V163.6C46.545 155.152 50.513 150.928 58.449 150.928H71.217C79.153 150.928 83.121 155.152 83.121 163.6ZM69.681 203.824V161.968C69.681 161.456 69.489 161.008 69.105 160.624C68.785 160.24 68.369 160.048 67.857 160.048H61.809C61.297 160.048 60.849 160.24 60.465 160.624C60.145 161.008 59.985 161.456 59.985 161.968V203.824C59.985 204.336 60.145 204.784 60.465 205.168C60.849 205.552 61.297 205.744 61.809 205.744H67.857C68.369 205.744 68.785 205.552 69.105 205.168C69.489 204.784 69.681 204.336 69.681 203.824ZM103.605 188.56V214H90.165V151.888H114.069C122.005 151.888 125.973 156.112 125.973 164.56V171.76C125.973 176.88 124.149 180.144 120.501 181.552C123.701 182.704 125.301 185.328 125.301 189.424V214H111.861V190.48C111.861 189.2 111.253 188.56 110.037 188.56H103.605ZM103.605 161.008V179.152H110.709C111.221 179.152 111.637 178.96 111.957 178.576C112.341 178.192 112.533 177.744 112.533 177.232V162.928C112.533 162.416 112.341 161.968 111.957 161.584C111.637 161.2 111.221 161.008 110.709 161.008H103.605ZM128.171 163.312V151.888H161.771V163.312H151.691V214H138.251V163.312H128.171ZM178.47 189.616V214H165.03V151.888H178.47V177.904H189.126V151.888H202.566V214H189.126V189.616H178.47ZM222.746 202.864H237.626V214H209.306V151.888H237.626V162.832H222.746V177.424H236.666V187.984H222.746V202.864ZM255.96 188.56V214H242.52V151.888H266.424C274.36 151.888 278.328 156.112 278.328 164.56V171.76C278.328 176.88 276.504 180.144 272.856 181.552C276.056 182.704 277.656 185.328 277.656 189.424V214H264.216V190.48C264.216 189.2 263.608 188.56 262.392 188.56H255.96ZM255.96 161.008V179.152H263.064C263.576 179.152 263.992 178.96 264.312 178.576C264.696 178.192 264.888 177.744 264.888 177.232V162.928C264.888 162.416 264.696 161.968 264.312 161.584C263.992 161.2 263.576 161.008 263.064 161.008H255.96ZM319.693 214H306.253V162.448C306.253 161.936 306.061 161.488 305.677 161.104C305.357 160.72 304.941 160.528 304.429 160.528H299.245C298.733 160.528 298.285 160.72 297.901 161.104C297.581 161.488 297.421 161.936 297.421 162.448V214H283.981V163.6C283.981 155.152 287.949 150.928 295.885 150.928H307.789C315.725 150.928 319.693 155.152 319.693 163.6V214ZM372.685 180.016C376.845 181.488 378.925 184.88 378.925 190.192V201.328C378.925 209.776 374.957 214 367.021 214H342.349V151.888H366.253C374.189 151.888 378.157 156.112 378.157 164.56V170.224C378.157 175.344 376.333 178.608 372.685 180.016ZM362.893 161.008H355.789V177.616H362.893C363.405 177.616 363.821 177.424 364.141 177.04C364.525 176.656 364.717 176.208 364.717 175.696V162.928C364.717 162.416 364.525 161.968 364.141 161.584C363.821 161.2 363.405 161.008 362.893 161.008ZM365.485 202.864V188.944C365.485 188.432 365.293 187.984 364.909 187.6C364.589 187.216 364.173 187.024 363.661 187.024H355.789V204.784H363.661C364.173 204.784 364.589 204.592 364.909 204.208C365.293 203.824 365.485 203.376 365.485 202.864ZM398.659 202.864H413.539V214H385.219V151.888H413.539V162.832H398.659V177.424H412.579V187.984H398.659V202.864ZM443.105 150.928C451.041 150.928 455.009 155.152 455.009 163.6V214H441.569V193.168H431.873V214H418.433V163.6C418.433 155.152 422.401 150.928 430.337 150.928H443.105ZM431.873 182.8H441.569V161.968C441.569 161.456 441.377 161.008 440.993 160.624C440.673 160.24 440.257 160.048 439.745 160.048H433.697C433.185 160.048 432.737 160.24 432.353 160.624C432.033 161.008 431.873 161.456 431.873 161.968V182.8ZM485.282 203.824V194.224H498.05V202.288C498.05 210.736 494.082 214.96 486.146 214.96H474.05C466.114 214.96 462.146 210.736 462.146 202.288V163.6C462.146 155.152 466.114 150.928 474.05 150.928H486.146C494.082 150.928 498.05 155.152 498.05 163.6V169.456H485.282V161.968C485.282 161.456 485.09 161.008 484.706 160.624C484.386 160.24 483.97 160.048 483.458 160.048H477.41C476.898 160.048 476.45 160.24 476.066 160.624C475.746 161.008 475.586 161.456 475.586 161.968V203.824C475.586 204.336 475.746 204.784 476.066 205.168C476.45 205.552 476.898 205.744 477.41 205.744H483.458C483.97 205.744 484.386 205.552 484.706 205.168C485.09 204.784 485.282 204.336 485.282 203.824ZM516.675 189.616V214H503.235V151.888H516.675V177.904H527.331V151.888H540.771V214H527.331V189.616H516.675ZM560.951 202.864H575.831V214H547.511V151.888H575.831V162.832H560.951V177.424H574.871V187.984H560.951V202.864ZM615.189 168.208H602.421V163.312C602.421 162.8 602.229 162.352 601.845 161.968C601.525 161.584 601.109 161.392 600.597 161.392H595.317C594.805 161.392 594.357 161.584 593.973 161.968C593.653 162.352 593.493 162.8 593.493 163.312V174.352C593.493 174.864 593.653 175.312 593.973 175.696C594.357 176.08 594.805 176.272 595.317 176.272H603.957C611.893 176.4 615.861 180.624 615.861 188.944V202.288C615.861 210.736 611.893 214.96 603.957 214.96H592.629C584.693 214.96 580.725 210.736 580.725 202.288V195.856H593.493V202.768C593.493 203.28 593.653 203.728 593.973 204.112C594.357 204.496 594.805 204.688 595.317 204.688H601.269C601.781 204.688 602.197 204.496 602.517 204.112C602.901 203.728 603.093 203.28 603.093 202.768V190.576C603.093 190.064 602.901 189.616 602.517 189.232C602.197 188.848 601.781 188.656 601.269 188.656H592.629C584.693 188.656 580.725 184.432 580.725 175.984V163.6C580.725 155.152 584.693 150.928 592.629 150.928H603.285C611.221 150.928 615.189 155.152 615.189 163.6V168.208ZM672.804 168.208H660.036V163.312C660.036 162.8 659.844 162.352 659.46 161.968C659.14 161.584 658.724 161.392 658.212 161.392H652.932C652.42 161.392 651.972 161.584 651.588 161.968C651.268 162.352 651.108 162.8 651.108 163.312V174.352C651.108 174.864 651.268 175.312 651.588 175.696C651.972 176.08 652.42 176.272 652.932 176.272H661.572C669.508 176.4 673.476 180.624 673.476 188.944V202.288C673.476 210.736 669.508 214.96 661.572 214.96H650.244C642.308 214.96 638.34 210.736 638.34 202.288V195.856H651.108V202.768C651.108 203.28 651.268 203.728 651.588 204.112C651.972 204.496 652.42 204.688 652.932 204.688H658.884C659.396 204.688 659.812 204.496 660.132 204.112C660.516 203.728 660.708 203.28 660.708 202.768V190.576C660.708 190.064 660.516 189.616 660.132 189.232C659.812 188.848 659.396 188.656 658.884 188.656H650.244C642.308 188.656 638.34 184.432 638.34 175.984V163.6C638.34 155.152 642.308 150.928 650.244 150.928H660.9C668.836 150.928 672.804 155.152 672.804 163.6V168.208ZM692.773 214H679.333V163.6C679.333 155.152 683.301 150.928 691.237 150.928H698.341C703.013 150.928 706.341 152.464 708.325 155.536C710.181 152.464 713.509 150.928 718.309 150.928H725.413C733.349 150.928 737.317 155.152 737.317 163.6V214H723.877V162.448C723.877 161.936 723.685 161.488 723.301 161.104C722.981 160.72 722.565 160.528 722.053 160.528H716.869C716.357 160.528 715.909 160.72 715.525 161.104C715.205 161.488 715.045 161.936 715.045 162.448V214H701.605V162.448C701.605 161.936 701.413 161.488 701.029 161.104C700.709 160.72 700.293 160.528 699.781 160.528H694.597C694.085 160.528 693.637 160.72 693.253 161.104C692.933 161.488 692.773 161.936 692.773 162.448V214ZM768.346 150.928C776.282 150.928 780.25 155.152 780.25 163.6V214H766.81V193.168H757.114V214H743.674V163.6C743.674 155.152 747.642 150.928 755.578 150.928H768.346ZM757.114 182.8H766.81V161.968C766.81 161.456 766.618 161.008 766.234 160.624C765.914 160.24 765.498 160.048 764.986 160.048H758.938C758.426 160.048 757.978 160.24 757.594 160.624C757.274 161.008 757.114 161.456 757.114 161.968V182.8ZM821.852 168.208H809.084V163.312C809.084 162.8 808.892 162.352 808.508 161.968C808.188 161.584 807.772 161.392 807.26 161.392H801.98C801.468 161.392 801.02 161.584 800.636 161.968C800.316 162.352 800.156 162.8 800.156 163.312V174.352C800.156 174.864 800.316 175.312 800.636 175.696C801.02 176.08 801.468 176.272 801.98 176.272H810.62C818.556 176.4 822.524 180.624 822.524 188.944V202.288C822.524 210.736 818.556 214.96 810.62 214.96H799.292C791.356 214.96 787.388 210.736 787.388 202.288V195.856H800.156V202.768C800.156 203.28 800.316 203.728 800.636 204.112C801.02 204.496 801.468 204.688 801.98 204.688H807.932C808.444 204.688 808.86 204.496 809.18 204.112C809.564 203.728 809.756 203.28 809.756 202.768V190.576C809.756 190.064 809.564 189.616 809.18 189.232C808.86 188.848 808.444 188.656 807.932 188.656H799.292C791.356 188.656 787.388 184.432 787.388 175.984V163.6C787.388 155.152 791.356 150.928 799.292 150.928H809.948C817.884 150.928 821.852 155.152 821.852 163.6V168.208ZM841.916 189.616V214H828.476V151.888H841.916V177.904H852.572V151.888H866.012V214H852.572V189.616H841.916ZM902.719 188.56V214H889.279V151.888H913.183C921.119 151.888 925.087 156.112 925.087 164.56V171.76C925.087 176.88 923.263 180.144 919.615 181.552C922.815 182.704 924.415 185.328 924.415 189.424V214H910.975V190.48C910.975 189.2 910.367 188.56 909.151 188.56H902.719ZM902.719 161.008V179.152H909.823C910.335 179.152 910.751 178.96 911.071 178.576C911.455 178.192 911.647 177.744 911.647 177.232V162.928C911.647 162.416 911.455 161.968 911.071 161.584C910.751 161.2 910.335 161.008 909.823 161.008H902.719ZM944.276 202.864H959.156V214H930.836V151.888H959.156V162.832H944.276V177.424H958.196V187.984H944.276V202.864ZM988.242 151.888C996.178 151.888 1000.15 156.112 1000.15 164.56V176.944C1000.15 185.392 996.178 189.616 988.242 189.616H977.394V214H963.954V151.888H988.242ZM986.706 178.48V163.024C986.706 162.512 986.514 162.064 986.13 161.68C985.81 161.296 985.394 161.104 984.882 161.104H977.394V180.4H984.882C985.394 180.4 985.81 180.208 986.13 179.824C986.514 179.44 986.706 178.992 986.706 178.48ZM1028.69 150.928C1036.62 150.928 1040.59 155.152 1040.59 163.6V214H1027.15V193.168H1017.45V214H1004.01V163.6C1004.01 155.152 1007.98 150.928 1015.92 150.928H1028.69ZM1017.45 182.8H1027.15V161.968C1027.15 161.456 1026.96 161.008 1026.57 160.624C1026.25 160.24 1025.84 160.048 1025.33 160.048H1019.28C1018.77 160.048 1018.32 160.24 1017.93 160.624C1017.61 161.008 1017.45 161.456 1017.45 161.968V182.8ZM1061.17 151.888V214H1047.73V151.888H1061.17ZM1081.72 188.56V214H1068.28V151.888H1092.19C1100.12 151.888 1104.09 156.112 1104.09 164.56V171.76C1104.09 176.88 1102.27 180.144 1098.62 181.552C1101.82 182.704 1103.42 185.328 1103.42 189.424V214H1089.98V190.48C1089.98 189.2 1089.37 188.56 1088.16 188.56H1081.72ZM1081.72 161.008V179.152H1088.83C1089.34 179.152 1089.76 178.96 1090.08 178.576C1090.46 178.192 1090.65 177.744 1090.65 177.232V162.928C1090.65 162.416 1090.46 161.968 1090.08 161.584C1089.76 161.2 1089.34 161.008 1088.83 161.008H1081.72ZM1144.31 168.208H1131.54V163.312C1131.54 162.8 1131.35 162.352 1130.96 161.968C1130.64 161.584 1130.23 161.392 1129.71 161.392H1124.43C1123.92 161.392 1123.47 161.584 1123.09 161.968C1122.77 162.352 1122.61 162.8 1122.61 163.312V174.352C1122.61 174.864 1122.77 175.312 1123.09 175.696C1123.47 176.08 1123.92 176.272 1124.43 176.272H1133.07C1141.01 176.4 1144.98 180.624 1144.98 188.944V202.288C1144.98 210.736 1141.01 214.96 1133.07 214.96H1121.75C1113.81 214.96 1109.84 210.736 1109.84 202.288V195.856H1122.61V202.768C1122.61 203.28 1122.77 203.728 1123.09 204.112C1123.47 204.496 1123.92 204.688 1124.43 204.688H1130.39C1130.9 204.688 1131.31 204.496 1131.63 204.112C1132.02 203.728 1132.21 203.28 1132.21 202.768V190.576C1132.21 190.064 1132.02 189.616 1131.63 189.232C1131.31 188.848 1130.9 188.656 1130.39 188.656H1121.75C1113.81 188.656 1109.84 184.432 1109.84 175.984V163.6C1109.84 155.152 1113.81 150.928 1121.75 150.928H1132.4C1140.34 150.928 1144.31 155.152 1144.31 163.6V168.208Z" fill="white"/>
</svg>
