<svg width="1221" height="328" viewBox="0 0 1221 328" fill="none" xmlns="http://www.w3.org/2000/svg">
<g clip-path="url(#clip0_1_2)">
<path d="M362.393 55.6888C345.811 53.6888 273.267 47.8554 239.068 45.1888C324.048 42.6888 414.728 21.6888 489.344 8.68877C563.961 -4.31123 642.204 -0.311239 674.849 5.18875C748.429 17.5856 831.336 64.6888 846.363 76.6888C896.108 75.1888 944.815 77.6888 1010.62 81.1888C1076.9 84.7136 1130.84 95.7388 1158.3 103.689C1199.76 115.689 1219.96 137.689 1221 145.189C1195.61 123.689 1171.26 116.189 1138.09 109.189C1091.43 99.3396 995.596 92.6888 948.443 90.6888C910.72 89.0888 765.529 88.1888 689.358 91.6888C721.83 88.0221 792.784 80.1888 816.828 78.1888C789.365 58.6888 748.947 42.1888 725.111 34.1888C701.276 26.1888 673.294 20.1888 620.959 16.1888C568.624 12.1888 509.035 23.6888 484.162 29.1888C459.29 34.6888 428.718 40.1888 416.8 41.6888C419.288 43.6888 460.845 64.1888 480.535 73.6888C448.063 68.5221 378.974 57.6888 362.393 55.6888Z" fill="white"/>
<path d="M82.5808 77.6888C46.5162 108.489 37.5 134.522 37.5 143.689C38.7436 147.689 43.1999 147.355 45.2725 146.689C50.1088 136.689 71.3883 112.789 117.816 97.1888C175.851 77.6888 266.013 81.6888 303.839 82.1888C341.666 82.6888 447.891 91.1888 522.507 97.1888C504.371 92.1888 386.746 73.1888 330.266 67.1888C273.785 61.1888 204.869 57.1888 171.188 54.1888C137.507 51.1888 70.1447 35.6888 69.1084 35.6888C68.072 35.6888 65.4812 36.1888 64.963 40.6888C64.4448 45.1888 75.3264 66.1888 82.5808 77.6888Z" fill="white"/>
<path fill-rule="evenodd" clip-rule="evenodd" d="M34.5 162.096L0 323.596H78L97 236.096L177 323.596H256L290 162.096H210L190 252.096L113.5 162.096H34.5ZM305.5 323.596L341.5 162.096H588.5C587.167 172.596 580.5 202.096 564.5 236.096C596.1 252.896 587.333 301.429 579 323.596H305.5ZM893 202.596L902.5 162.096H663C661.667 166.263 657.6 182.196 652 212.596C646.4 242.996 686.667 260.263 707.5 265.096C732 264.763 785 264.296 801 265.096C817 265.896 814.667 279.763 811.5 286.596H636L628.5 323.596H887.179C886.178 330.438 886.749 327.725 887.5 323.596H887.179C887.956 318.286 889.679 307.221 893 286.596C900.6 239.396 864.833 223.929 846 222.096H748.5C735.3 222.096 736 209.096 738 202.596H893ZM938 323.596L973 162.096H1220.5C1219 169.263 1214.4 189.396 1208 212.596C1201.6 235.796 1168.33 253.263 1152.5 259.096L1220.5 323.596H1115.5L1073.5 279.596H1026L1018.5 323.596H938ZM405.5 227.096L411 203.596H498C499.2 215.996 483.5 227.096 480 227.096H405.5ZM1044 202.596L1036.5 237.096C1049.83 237.929 1079.8 238.496 1093 234.096C1109.5 228.596 1124.5 221.596 1128.5 202.596H1044ZM399 260.596L393.5 282.596H502.5C502 275.596 499.2 261.396 492 260.596C484.8 259.796 427 260.263 399 260.596Z" fill="white"/>
<path d="M0 323.596L-0.488968 323.492L-0.618092 324.096H0V323.596ZM34.5 162.096V161.596H34.0955L34.011 161.992L34.5 162.096ZM78 323.596V324.096H78.4031L78.4886 323.702L78 323.596ZM97 236.096L97.369 235.759L96.7166 235.045L96.5114 235.99L97 236.096ZM177 323.596L176.631 323.934L176.78 324.096H177V323.596ZM256 323.596V324.096H256.406L256.489 323.699L256 323.596ZM290 162.096L290.489 162.199L290.616 161.596H290V162.096ZM210 162.096V161.596H209.599L209.512 161.988L210 162.096ZM190 252.096L189.619 252.42L190.27 253.186L190.488 252.205L190 252.096ZM113.5 162.096L113.881 161.772L113.731 161.596H113.5V162.096ZM341.5 162.096V161.596H341.099L341.012 161.987L341.5 162.096ZM305.5 323.596L305.012 323.487L304.876 324.096H305.5V323.596ZM588.5 162.096L588.996 162.159L589.068 161.596H588.5V162.096ZM564.5 236.096L564.048 235.883L563.845 236.314L564.265 236.538L564.5 236.096ZM579 323.596V324.096H579.346L579.468 323.772L579 323.596ZM902.5 162.096L902.987 162.21L903.131 161.596H902.5V162.096ZM893 202.596V203.096H893.396L893.487 202.71L893 202.596ZM663 162.096V161.596H662.635L662.524 161.944L663 162.096ZM652 212.596L651.508 212.506L651.508 212.506L652 212.596ZM707.5 265.096L707.387 265.583L707.446 265.597L707.507 265.596L707.5 265.096ZM811.5 286.596V287.096H811.819L811.954 286.806L811.5 286.596ZM636 286.596V286.096H635.591L635.51 286.497L636 286.596ZM628.5 323.596L628.01 323.497L627.888 324.096H628.5V323.596ZM887.5 323.596L887.992 323.686L888.099 323.096H887.5V323.596ZM893 286.596L893.494 286.676L893.494 286.676L893 286.596ZM846 222.096L846.048 221.599L846.024 221.596H846V222.096ZM738 202.596V202.096H737.631L737.522 202.449L738 202.596ZM973 162.096V161.596H972.597L972.511 161.99L973 162.096ZM938 323.596L937.511 323.49L937.38 324.096H938V323.596ZM1220.5 162.096L1220.99 162.199L1221.12 161.596H1220.5V162.096ZM1208 212.596L1208.48 212.729L1208.48 212.729L1208 212.596ZM1152.5 259.096L1152.33 258.627L1151.57 258.905L1152.16 259.459L1152.5 259.096ZM1220.5 323.596V324.096H1221.75L1220.84 323.233L1220.5 323.596ZM1115.5 323.596L1115.14 323.941L1115.29 324.096H1115.5V323.596ZM1073.5 279.596L1073.86 279.251L1073.71 279.096H1073.5V279.596ZM1026 279.596V279.096H1025.58L1025.51 279.512L1026 279.596ZM1018.5 323.596V324.096H1018.92L1018.99 323.68L1018.5 323.596ZM411 203.596V203.096H410.604L410.513 203.482L411 203.596ZM405.5 227.096L405.013 226.982L404.869 227.596H405.5V227.096ZM498 203.596L498.498 203.548L498.454 203.096H498V203.596ZM1036.5 237.096L1036.01 236.99L1035.89 237.559L1036.47 237.595L1036.5 237.096ZM1044 202.596V202.096H1043.6L1043.51 202.49L1044 202.596ZM1093 234.096L1092.84 233.622L1092.84 233.622L1093 234.096ZM1128.5 202.596L1128.99 202.699L1129.12 202.096H1128.5V202.596ZM393.5 282.596L393.015 282.475L392.86 283.096H393.5V282.596ZM399 260.596L398.994 260.096L398.608 260.101L398.515 260.475L399 260.596ZM502.5 282.596V283.096H503.037L502.999 282.561L502.5 282.596ZM492 260.596L491.945 261.093L491.945 261.093L492 260.596ZM0.488968 323.701L34.989 162.201L34.011 161.992L-0.488968 323.492L0.488968 323.701ZM78 323.096H0V324.096H78V323.096ZM96.5114 235.99L77.5114 323.49L78.4886 323.702L97.4886 236.202L96.5114 235.99ZM177.369 323.259L97.369 235.759L96.631 236.434L176.631 323.934L177.369 323.259ZM256 323.096H177V324.096H256V323.096ZM289.511 161.993L255.511 323.493L256.489 323.699L290.489 162.199L289.511 161.993ZM210 162.596H290V161.596H210V162.596ZM190.488 252.205L210.488 162.205L209.512 161.988L189.512 251.988L190.488 252.205ZM113.119 162.42L189.619 252.42L190.381 251.772L113.881 161.772L113.119 162.42ZM34.5 162.596H113.5V161.596H34.5V162.596ZM341.012 161.987L305.012 323.487L305.988 323.705L341.988 162.205L341.012 161.987ZM588.5 161.596H341.5V162.596H588.5V161.596ZM564.952 236.309C580.973 202.265 587.656 172.714 588.996 162.159L588.004 162.033C586.678 172.478 580.027 201.928 564.048 235.883L564.952 236.309ZM579.468 323.772C583.651 312.645 587.945 294.902 587.225 277.813C586.504 260.727 580.761 244.175 564.735 235.655L564.265 236.538C579.839 244.818 585.512 260.932 586.225 277.855C586.939 294.774 582.682 312.381 578.532 323.42L579.468 323.772ZM305.5 324.096H579V323.096H305.5V324.096ZM902.013 161.982L892.513 202.482L893.487 202.71L902.987 162.21L902.013 161.982ZM663 162.596H902.5V161.596H663V162.596ZM652.492 212.687C658.091 182.29 662.153 166.383 663.476 162.249L662.524 161.944C661.18 166.143 657.109 182.102 651.508 212.506L652.492 212.687ZM707.613 264.609C697.239 262.202 682.032 256.699 670.132 248.03C658.228 239.357 649.743 227.609 652.492 212.687L651.508 212.506C648.657 227.983 657.506 240.068 669.543 248.838C681.584 257.61 696.928 263.157 707.387 265.583L707.613 264.609ZM801.025 264.597C785.005 263.796 731.985 264.263 707.493 264.596L707.507 265.596C732.015 265.263 784.995 264.797 800.975 265.596L801.025 264.597ZM811.954 286.806C813.559 283.343 814.981 278.047 813.925 273.471C813.393 271.167 812.229 269.036 810.14 267.435C808.056 265.838 805.096 264.8 801.025 264.597L800.975 265.596C804.904 265.792 807.652 266.788 809.532 268.229C811.407 269.666 812.462 271.58 812.95 273.696C813.935 277.962 812.608 283.016 811.046 286.386L811.954 286.806ZM636 287.096H811.5V286.096H636V287.096ZM628.99 323.695L636.49 286.695L635.51 286.497L628.01 323.497L628.99 323.695ZM887.179 323.096H628.5V324.096H887.179V323.096ZM886.684 323.524C886.434 325.235 886.281 326.354 886.205 327.005C886.167 327.323 886.146 327.551 886.143 327.681C886.142 327.713 886.142 327.758 886.147 327.805C886.149 327.825 886.155 327.872 886.174 327.926C886.183 327.953 886.202 328.002 886.239 328.055C886.276 328.107 886.351 328.194 886.481 328.241C886.786 328.352 886.993 328.141 887.021 328.112C887.073 328.057 887.101 328.003 887.11 327.985C887.133 327.939 887.149 327.893 887.158 327.866C887.226 327.66 887.343 327.109 887.483 326.397C887.627 325.665 887.804 324.719 887.992 323.686L887.008 323.507C886.821 324.538 886.645 325.479 886.502 326.204C886.43 326.566 886.368 326.872 886.316 327.108C886.263 327.352 886.226 327.498 886.208 327.554C886.203 327.57 886.206 327.556 886.219 327.53C886.223 327.523 886.246 327.476 886.294 327.425C886.318 327.4 886.37 327.349 886.454 327.313C886.548 327.271 886.681 327.25 886.822 327.301C886.95 327.348 887.024 327.433 887.059 327.483C887.095 327.534 887.112 327.58 887.121 327.604C887.136 327.651 887.14 327.687 887.141 327.695C887.143 327.715 887.142 327.722 887.143 327.702C887.144 327.627 887.16 327.446 887.198 327.121C887.273 326.486 887.424 325.379 887.674 323.669L886.684 323.524ZM887.5 323.096H887.179V324.096H887.5V323.096ZM892.506 286.517C889.185 307.141 887.461 318.21 886.684 323.524L887.674 323.669C888.45 318.363 890.173 307.301 893.494 286.676L892.506 286.517ZM845.952 222.594C855.285 223.502 868.819 227.794 879.065 237.693C889.286 247.568 896.282 263.068 892.506 286.517L893.494 286.676C897.318 262.925 890.231 247.091 879.76 236.974C869.314 226.882 855.549 222.523 846.048 221.599L845.952 222.594ZM748.5 222.596H846V221.596H748.5V222.596ZM737.522 202.449C736.507 205.748 735.806 210.733 737.071 214.928C737.707 217.037 738.846 218.965 740.709 220.363C742.573 221.762 745.116 222.596 748.5 222.596V221.596C745.284 221.596 742.964 220.805 741.309 219.563C739.654 218.321 738.618 216.593 738.029 214.639C736.844 210.71 737.493 205.945 738.478 202.743L737.522 202.449ZM893 202.096H738V203.096H893V202.096ZM972.511 161.99L937.511 323.49L938.489 323.702L973.489 162.202L972.511 161.99ZM1220.5 161.596H973V162.596H1220.5V161.596ZM1208.48 212.729C1214.88 189.519 1219.49 169.375 1220.99 162.199L1220.01 161.994C1218.51 169.15 1213.92 189.273 1207.52 212.463L1208.48 212.729ZM1152.67 259.565C1160.62 256.636 1172.94 250.791 1184.08 242.764C1195.2 234.749 1205.24 224.497 1208.48 212.729L1207.52 212.463C1204.36 223.895 1194.56 233.977 1183.5 241.953C1172.44 249.918 1160.21 255.723 1152.33 258.627L1152.67 259.565ZM1220.84 323.233L1152.84 258.733L1152.16 259.459L1220.16 323.959L1220.84 323.233ZM1115.5 324.096H1220.5V323.096H1115.5V324.096ZM1073.14 279.941L1115.14 323.941L1115.86 323.251L1073.86 279.251L1073.14 279.941ZM1026 280.096H1073.5V279.096H1026V280.096ZM1018.99 323.68L1026.49 279.68L1025.51 279.512L1018.01 323.512L1018.99 323.68ZM938 324.096H1018.5V323.096H938V324.096ZM410.513 203.482L405.013 226.982L405.987 227.21L411.487 203.71L410.513 203.482ZM498 203.096H411V204.096H498V203.096ZM480 227.596C480.543 227.596 481.248 227.389 482.025 227.054C482.817 226.714 483.737 226.218 484.726 225.59C486.704 224.335 488.987 222.535 491.121 220.345C495.369 215.983 499.119 209.968 498.498 203.548L497.502 203.644C498.081 209.624 494.581 215.359 490.404 219.647C488.325 221.782 486.102 223.532 484.19 224.746C483.233 225.353 482.362 225.821 481.63 226.136C480.883 226.457 480.332 226.596 480 226.596V227.596ZM405.5 227.596H480V226.596H405.5V227.596ZM1036.99 237.202L1044.49 202.702L1043.51 202.49L1036.01 236.99L1036.99 237.202ZM1092.84 233.622C1086.32 235.796 1075.6 236.755 1064.79 237.059C1053.99 237.363 1043.19 237.013 1036.53 236.597L1036.47 237.595C1043.15 238.013 1053.99 238.363 1064.81 238.058C1075.62 237.754 1086.48 236.796 1093.16 234.571L1092.84 233.622ZM1128.01 202.493C1124.07 221.2 1109.34 228.124 1092.84 233.622L1093.16 234.571C1109.66 229.068 1124.93 221.992 1128.99 202.699L1128.01 202.493ZM1044 203.096H1128.5V202.096H1044V203.096ZM393.985 282.717L399.485 260.717L398.515 260.475L393.015 282.475L393.985 282.717ZM502.5 282.096H393.5V283.096H502.5V282.096ZM491.945 261.093C493.574 261.274 494.991 262.215 496.222 263.705C497.455 265.198 498.472 267.209 499.293 269.444C500.935 273.911 501.753 279.162 502.001 282.632L502.999 282.561C502.747 279.03 501.915 273.681 500.232 269.099C499.39 266.808 498.326 264.682 496.993 263.068C495.659 261.452 494.026 260.318 492.055 260.099L491.945 261.093ZM399.006 261.096C413.005 260.929 434.453 260.729 453.302 260.671C462.726 260.642 471.498 260.648 478.364 260.712C485.245 260.775 490.176 260.897 491.945 261.093L492.055 260.099C490.224 259.896 485.23 259.775 478.373 259.712C471.502 259.648 462.724 259.642 453.298 259.671C434.447 259.73 412.995 259.93 398.994 260.096L399.006 261.096Z" fill="black" fill-opacity="0.2"/>
</g>
<defs>
<clipPath id="clip0_1_2">
<rect width="1221" height="328" fill="white"/>
</clipPath>
</defs>
</svg>
